<?xml version="1.0" encoding="utf-8"?>
<!-- Generator: Adobe Illustrator 24.0.2, SVG Export Plug-In . SVG Version: 6.00 Build 0)  -->
<svg version="1.1" id="Layer_1" xmlns="http://www.w3.org/2000/svg" xmlns:xlink="http://www.w3.org/1999/xlink" x="0px" y="0px"
	 viewBox="0 0 200 200" style="enable-background:new 0 0 200 200;" xml:space="preserve">
<path d="M190,100c0-49.7-40.3-90-90-90s-90,40.3-90,90s40.3,90,90,90c21.2,0,40.8-7.4,56.2-19.7l19.7,19.7l14.1-14.1l-19.7-19.7
	C182.6,140.8,190,121.2,190,100z M141.9,156.1c-11.7,8.8-26.2,13.9-41.9,13.9c-38.7,0-70-31.3-70-70c0-38.7,31.3-70,70-70
	s70,31.3,70,70c0,15.7-5.2,30.2-13.9,41.9C152,147.3,147.3,152,141.9,156.1z"/>
</svg>
