<?xml version="1.0" encoding="utf-8"?>
<!-- Generator: Adobe Illustrator 24.0.2, SVG Export Plug-In . SVG Version: 6.00 Build 0)  -->
<svg version="1.1" xmlns="http://www.w3.org/2000/svg" xmlns:xlink="http://www.w3.org/1999/xlink" x="0px" y="0px"
	 viewBox="0 0 200 200" style="enable-background:new 0 0 200 200;" xml:space="preserve">
<style type="text/css">
	.st0{display:none;}
	.st1{display:inline;}
	.st2{fill:#FFFFFF;}
</style>
<g id="Guide_Lines">
</g>
<g id="serach" class="st0">
	<g class="st1">
		<path d="M190,100c0-49.7-40.3-90-90-90s-90,40.3-90,90s40.3,90,90,90c21.2,0,40.8-7.4,56.2-19.7l19.7,19.7l14.1-14.1l-19.7-19.7
			C182.6,140.8,190,121.2,190,100z M141.9,156.1c-11.7,8.8-26.2,13.9-41.9,13.9c-38.7,0-70-31.3-70-70c0-38.7,31.3-70,70-70
			s70,31.3,70,70c0,15.7-5.2,30.2-13.9,41.9C152,147.3,147.3,152,141.9,156.1z"/>
	</g>
</g>
<g id="Layer_2">
	<path class="st2" d="M135.3,107.2C147.3,97.1,155,81.9,155,65c0-30.3-24.7-55-55-55S45,34.7,45,65c0,16.9,7.7,32.1,19.7,42.2
		C32.6,120.9,10,152.8,10,190h20c0-38.7,31.3-70,70-70s70,31.3,70,70h20C190,152.8,167.4,120.9,135.3,107.2z M65,65
		c0-19.3,15.7-35,35-35s35,15.7,35,35s-15.7,35-35,35S65,84.3,65,65z"/>
</g>
</svg>
